<svg id="svg" version="1.1" xmlns="http://www.w3.org/2000/svg" xmlns:xlink="http://www.w3.org/1999/xlink" width="400" height="490.5660377358491" viewBox="0, 0, 400,490.5660377358491"><g id="svgg"><path id="path0" d="M327.400 258.800 C 327.264 259.020,326.728 259.200,326.209 259.200 C 325.690 259.200,324.665 259.500,323.932 259.868 C 321.546 261.064,321.217 261.200,320.724 261.200 C 320.457 261.200,319.659 261.761,318.952 262.447 C 318.244 263.133,317.249 263.901,316.740 264.155 C 316.232 264.408,315.616 265.016,315.372 265.505 C 315.129 265.994,314.627 266.728,314.258 267.135 C 310.410 271.388,309.983 273.946,309.635 294.876 C 309.437 306.746,309.191 312.929,308.902 313.277 C 308.663 313.565,308.382 315.241,308.279 317.001 C 308.076 320.446,307.560 323.465,306.552 327.104 C 305.259 331.770,304.224 338.315,303.775 344.665 C 303.622 346.829,303.365 348.780,303.203 349.000 C 301.886 350.793,301.881 401.499,303.198 404.600 C 303.385 405.040,303.642 407.237,303.770 409.483 C 303.897 411.729,304.158 413.979,304.350 414.483 C 304.541 414.987,304.914 416.120,305.178 417.000 C 305.441 417.880,306.757 420.866,308.100 423.635 L 310.542 428.671 313.129 429.360 C 320.530 431.332,347.809 430.904,348.794 428.800 C 348.949 428.470,349.284 427.797,349.538 427.305 C 349.792 426.813,350.006 426.093,350.013 425.705 C 350.020 425.317,350.290 424.651,350.613 424.224 C 350.936 423.796,351.200 423.042,351.200 422.547 C 351.200 422.052,351.380 421.536,351.600 421.400 C 352.092 421.096,352.141 412.534,351.653 412.232 C 351.461 412.114,351.196 411.338,351.063 410.507 C 350.931 409.675,350.457 408.240,350.011 407.317 C 349.565 406.394,349.200 405.358,349.200 405.014 C 349.200 404.670,349.030 404.077,348.822 403.695 C 346.795 399.974,346.815 351.989,348.844 349.820 C 349.040 349.611,349.200 348.044,349.200 346.339 C 349.200 344.633,349.364 342.824,349.565 342.319 C 349.765 341.813,350.227 339.600,350.591 337.400 C 350.955 335.200,351.421 333.087,351.626 332.705 C 351.832 332.323,352.000 331.414,352.000 330.685 C 352.000 329.956,352.162 329.189,352.361 328.980 C 352.559 328.771,353.024 325.720,353.393 322.200 C 353.763 318.680,354.230 315.487,354.433 315.105 C 355.112 313.822,354.898 278.278,354.202 276.946 C 353.874 276.316,353.604 275.423,353.602 274.961 C 353.601 274.500,353.347 273.600,353.038 272.961 C 352.729 272.323,352.113 270.986,351.669 269.990 C 351.225 268.995,350.488 267.842,350.031 267.428 C 349.574 267.014,349.200 266.465,349.200 266.208 C 349.200 265.650,347.518 264.000,346.949 264.000 C 346.729 264.000,346.026 263.453,345.385 262.785 C 344.090 261.432,342.611 260.598,340.809 260.202 C 340.149 260.057,339.506 259.772,339.381 259.569 C 339.255 259.366,338.634 259.200,338.000 259.200 C 337.366 259.200,336.736 259.020,336.600 258.800 C 336.460 258.573,334.470 258.400,332.000 258.400 C 329.530 258.400,327.540 258.573,327.400 258.800 M262.633 296.347 C 262.515 296.538,261.469 296.815,260.309 296.963 C 258.093 297.245,252.822 299.562,251.315 300.916 C 250.828 301.353,250.022 301.915,249.523 302.164 C 249.024 302.412,248.408 303.032,248.155 303.540 C 247.901 304.049,247.133 305.044,246.447 305.752 C 245.761 306.459,245.200 307.345,245.200 307.719 C 245.200 308.094,245.020 308.400,244.800 308.400 C 244.580 308.400,244.400 308.816,244.400 309.324 C 244.400 309.831,244.136 310.596,243.813 311.024 C 243.490 311.451,243.220 312.284,243.213 312.876 C 243.206 313.468,243.020 314.064,242.800 314.200 C 242.134 314.612,242.298 323.314,242.998 324.654 C 243.326 325.284,243.596 326.177,243.598 326.638 C 243.599 327.099,243.956 328.539,244.390 329.838 C 244.825 331.137,245.185 332.659,245.190 333.220 C 245.196 333.781,245.352 334.411,245.537 334.620 C 245.896 335.026,246.654 338.276,247.304 342.200 C 247.523 343.520,247.771 347.660,247.855 351.400 C 247.940 355.140,248.179 358.560,248.387 359.000 C 248.595 359.440,248.962 366.640,249.204 375.000 C 249.701 392.198,249.867 395.066,250.434 396.207 C 250.820 396.982,250.738 403.898,250.184 417.358 C 250.033 421.024,250.099 423.059,250.378 423.338 C 250.610 423.570,250.800 424.178,250.800 424.688 C 250.800 425.198,251.250 426.329,251.800 427.200 C 252.350 428.071,252.800 428.953,252.800 429.160 C 252.800 430.244,276.108 430.692,280.366 429.690 C 283.570 428.936,290.706 427.989,291.343 428.234 C 292.005 428.487,293.200 427.392,293.200 426.532 C 293.200 426.196,293.443 425.354,293.741 424.660 C 295.109 421.471,295.287 419.645,295.482 406.800 C 295.620 397.655,295.528 392.555,295.172 389.600 C 294.893 387.290,294.528 380.450,294.360 374.400 C 293.865 356.530,292.649 336.814,291.965 335.535 C 291.764 335.159,291.600 333.938,291.600 332.821 C 291.600 331.703,291.428 330.477,291.218 330.095 C 290.834 329.395,289.287 323.232,288.935 321.000 C 288.831 320.340,288.596 319.440,288.413 319.000 C 288.230 318.560,287.767 317.120,287.385 315.800 C 287.003 314.480,286.558 313.220,286.397 313.000 C 286.236 312.780,285.878 311.880,285.601 311.000 C 284.915 308.821,284.032 307.240,282.660 305.733 C 282.025 305.036,281.299 304.049,281.045 303.540 C 280.792 303.032,280.176 302.412,279.677 302.164 C 279.178 301.915,278.372 301.344,277.885 300.896 C 276.440 299.564,271.160 297.257,268.891 296.965 C 267.731 296.816,266.685 296.538,266.567 296.347 C 266.449 296.156,265.564 296.000,264.600 296.000 C 263.636 296.000,262.751 296.156,262.633 296.347 M198.200 319.200 C 198.064 319.420,197.534 319.600,197.022 319.600 C 196.510 319.600,195.576 319.869,194.946 320.198 C 194.316 320.526,193.485 320.796,193.100 320.798 C 192.715 320.799,192.400 320.980,192.400 321.200 C 192.400 321.420,192.094 321.600,191.719 321.600 C 191.345 321.600,190.459 322.161,189.752 322.847 C 189.044 323.533,188.049 324.301,187.540 324.555 C 187.032 324.808,186.412 325.424,186.164 325.923 C 185.915 326.422,185.344 327.228,184.896 327.715 C 180.564 332.415,179.250 344.211,182.369 350.400 C 182.535 350.730,182.985 352.080,183.369 353.400 C 183.753 354.720,184.232 356.113,184.433 356.495 C 184.635 356.877,184.800 358.416,184.800 359.915 C 184.800 361.414,184.963 362.811,185.163 363.020 C 185.362 363.229,185.612 366.730,185.717 370.800 C 186.058 383.979,186.833 398.977,187.221 399.919 C 187.431 400.428,187.606 406.407,187.613 413.319 C 187.623 423.660,187.726 425.933,188.213 426.576 C 188.536 427.004,188.800 427.853,188.800 428.464 C 188.800 429.076,189.160 430.217,189.600 431.000 C 190.040 431.783,190.400 432.665,190.400 432.959 C 190.400 434.412,211.640 434.794,217.800 433.452 C 219.340 433.116,222.985 432.539,225.900 432.169 C 230.571 431.576,231.200 431.407,231.200 430.748 C 231.200 430.337,231.357 430.000,231.548 430.000 C 232.669 430.000,232.975 403.475,232.008 390.200 C 231.752 386.680,231.454 381.280,231.346 378.200 C 231.239 375.120,230.995 372.240,230.804 371.800 C 230.613 371.360,230.355 367.220,230.231 362.600 C 230.025 354.991,229.673 351.805,228.418 346.200 C 227.668 342.848,227.174 340.972,226.838 340.200 C 226.647 339.760,226.267 338.590,225.993 337.600 C 225.553 336.013,224.138 332.867,222.608 330.074 C 222.329 329.565,221.605 328.632,221.000 328.000 C 220.395 327.368,219.693 326.438,219.442 325.933 C 219.190 325.429,218.568 324.808,218.060 324.555 C 217.551 324.301,216.564 323.578,215.867 322.947 C 214.454 321.668,213.039 320.800,212.366 320.800 C 212.121 320.800,211.354 320.558,210.660 320.261 C 209.967 319.965,208.757 319.515,207.972 319.261 C 206.216 318.694,198.542 318.646,198.200 319.200 M134.219 343.569 C 134.094 343.772,133.435 344.061,132.755 344.210 C 131.611 344.461,128.710 345.744,126.453 346.996 C 123.253 348.770,119.303 354.400,117.639 359.560 C 116.378 363.467,117.371 372.160,119.629 377.000 C 120.847 379.608,121.588 382.106,121.594 383.620 C 121.597 384.401,121.755 385.211,121.944 385.420 C 122.330 385.845,123.060 391.780,123.458 397.713 C 123.602 399.866,123.873 401.721,124.060 401.837 C 124.247 401.953,124.400 405.446,124.400 409.600 C 124.400 413.754,124.553 417.247,124.739 417.362 C 124.926 417.478,125.202 419.783,125.353 422.486 C 125.504 425.189,125.829 428.030,126.075 428.800 C 126.625 430.519,128.083 434.172,128.790 435.600 C 129.564 437.166,149.080 437.634,157.000 436.275 C 162.042 435.411,167.349 434.327,167.949 434.040 C 168.525 433.764,169.984 429.584,169.994 428.180 C 169.997 427.729,170.193 427.167,170.429 426.931 C 170.704 426.656,170.782 425.162,170.647 422.751 C 170.532 420.688,170.246 415.400,170.012 411.000 C 169.778 406.600,169.292 400.030,168.933 396.400 C 168.574 392.770,168.211 388.450,168.127 386.800 C 168.042 385.150,167.818 383.440,167.629 383.000 C 167.440 382.560,167.066 380.760,166.798 379.000 C 166.530 377.240,166.143 374.990,165.938 374.000 C 165.732 373.010,165.470 371.660,165.355 371.000 C 165.240 370.340,164.996 369.440,164.813 369.000 C 164.630 368.560,164.173 367.158,163.798 365.885 C 163.423 364.611,162.686 362.721,162.160 361.685 C 161.634 360.648,161.203 359.603,161.202 359.361 C 161.199 358.679,160.049 356.538,159.392 355.993 C 159.066 355.723,158.800 355.276,158.800 355.000 C 158.800 354.724,158.530 354.274,158.200 354.000 C 157.870 353.726,157.600 353.204,157.600 352.839 C 157.600 351.979,152.781 347.200,151.913 347.200 C 151.547 347.200,151.148 347.040,151.027 346.844 C 150.679 346.280,147.130 344.531,145.705 344.221 C 144.992 344.065,144.306 343.772,144.181 343.569 C 144.055 343.366,141.814 343.200,139.200 343.200 C 136.586 343.200,134.345 343.366,134.219 343.569 M82.223 380.363 C 82.100 380.562,81.061 380.854,79.916 381.012 C 78.770 381.169,77.555 381.441,77.216 381.615 C 76.877 381.790,75.970 382.225,75.200 382.583 C 72.548 383.816,71.343 384.708,68.857 387.279 C 66.575 389.638,64.400 393.026,64.400 394.219 C 64.400 394.485,64.148 394.911,63.841 395.166 C 63.533 395.422,63.182 396.299,63.061 397.115 C 62.940 397.932,62.665 399.590,62.450 400.800 C 62.234 402.010,62.045 404.384,62.029 406.076 C 62.013 407.768,61.820 409.264,61.600 409.400 C 60.900 409.832,61.080 428.079,61.798 429.454 C 62.126 430.084,62.396 430.980,62.398 431.444 C 62.401 432.734,64.845 437.196,65.567 437.230 C 65.915 437.246,66.560 437.323,67.000 437.400 C 75.359 438.868,90.409 439.042,98.299 437.763 C 99.728 437.531,101.449 437.316,102.440 437.246 C 104.801 437.077,105.971 431.728,106.535 418.531 C 106.791 412.553,107.135 407.528,107.300 407.364 C 107.722 406.946,107.676 400.000,107.252 400.000 C 107.060 400.000,106.785 399.055,106.642 397.900 C 106.412 396.059,105.478 393.484,104.356 391.600 C 104.159 391.270,103.834 390.640,103.634 390.200 C 102.866 388.513,97.687 383.858,95.600 382.979 C 95.270 382.840,94.280 382.387,93.400 381.973 C 92.520 381.559,90.851 381.102,89.691 380.957 C 88.531 380.813,87.485 380.538,87.367 380.347 C 87.082 379.886,82.510 379.899,82.223 380.363 M272.206 440.390 C 271.976 440.763,277.587 440.546,277.967 440.167 C 278.058 440.075,276.854 440.000,275.290 440.000 C 273.727 440.000,272.339 440.175,272.206 440.390 M212.200 444.000 C 212.064 444.220,210.613 444.400,208.976 444.400 C 207.259 444.400,206.000 444.569,206.000 444.800 C 206.000 445.310,214.496 445.340,215.020 444.831 C 215.229 444.629,216.030 444.285,216.800 444.067 C 218.067 443.710,217.926 443.669,215.324 443.636 C 213.742 443.616,212.336 443.780,212.200 444.000 " stroke="none" fill="#eb142c" fill-rule="evenodd"></path><path id="path1" d="M33.872 211.861 C 33.763 211.970,33.426 212.096,33.124 212.141 C 31.500 212.379,26.000 218.259,26.000 219.757 C 26.000 220.111,25.820 220.400,25.600 220.400 C 25.380 220.400,25.200 220.605,25.200 220.856 C 25.200 221.107,24.920 221.517,24.578 221.767 C 24.235 222.017,23.915 222.487,23.866 222.811 C 23.818 223.135,23.671 223.580,23.540 223.800 C 22.009 226.385,25.186 231.974,28.315 232.197 C 29.834 232.306,29.790 232.265,29.889 233.671 C 29.939 234.369,30.187 235.068,30.441 235.225 C 30.695 235.382,30.780 235.709,30.630 235.951 C 30.481 236.193,30.625 236.978,30.952 237.696 C 31.278 238.413,31.652 239.810,31.782 240.800 C 32.166 243.718,32.698 245.902,33.195 246.600 C 33.351 246.820,33.517 247.979,33.563 249.176 C 33.609 250.372,33.748 251.516,33.873 251.717 C 33.997 251.919,34.174 253.010,34.267 254.142 C 34.359 255.274,34.523 256.740,34.631 257.400 C 34.739 258.060,34.906 259.140,35.002 259.800 C 35.099 260.460,35.363 262.170,35.590 263.600 C 35.817 265.030,36.169 267.550,36.373 269.200 C 36.576 270.850,36.836 272.650,36.951 273.200 C 37.066 273.750,37.248 274.740,37.356 275.400 C 37.465 276.060,37.771 277.230,38.037 278.000 C 38.303 278.770,38.613 279.670,38.725 280.000 C 38.836 280.330,39.000 281.586,39.087 282.791 C 39.174 283.995,39.439 285.100,39.674 285.246 C 39.910 285.391,39.986 285.698,39.845 285.928 C 39.703 286.157,39.773 286.460,40.000 286.600 C 40.227 286.740,40.312 287.019,40.188 287.219 C 40.064 287.420,40.192 287.992,40.471 288.492 C 40.751 288.991,41.019 289.760,41.067 290.200 C 41.206 291.456,41.455 292.542,41.771 293.269 C 41.931 293.637,42.124 294.267,42.200 294.669 C 42.276 295.071,42.373 295.490,42.416 295.600 C 42.458 295.710,42.526 295.980,42.567 296.200 C 42.759 297.221,43.337 299.039,43.584 299.400 C 43.735 299.620,43.890 300.341,43.928 301.003 C 43.967 301.664,44.379 303.194,44.844 304.403 C 45.309 305.611,45.783 307.140,45.895 307.800 C 46.008 308.460,46.278 309.223,46.495 309.495 C 46.712 309.767,46.792 310.244,46.673 310.554 C 46.554 310.864,46.804 311.766,47.229 312.559 C 47.654 313.351,48.001 314.089,48.001 314.200 C 48.000 314.496,48.147 315.051,48.479 316.000 C 48.817 316.966,50.022 321.727,50.151 322.604 C 50.216 323.046,50.493 323.826,50.767 324.338 C 51.041 324.850,51.166 325.368,51.044 325.489 C 50.923 325.610,51.198 326.235,51.655 326.878 C 52.113 327.520,52.385 328.149,52.259 328.274 C 52.134 328.399,52.285 329.109,52.595 329.851 C 52.906 330.593,53.056 331.200,52.931 331.200 C 52.805 331.200,52.903 331.442,53.148 331.737 C 53.393 332.032,53.480 332.386,53.342 332.524 C 53.204 332.662,53.358 333.186,53.684 333.688 C 54.033 334.226,54.311 335.742,54.362 337.388 C 54.409 338.921,54.594 340.361,54.773 340.588 C 55.200 341.131,55.191 344.481,54.761 345.027 C 54.575 345.261,54.384 346.071,54.334 346.827 C 54.285 347.582,54.018 348.561,53.740 349.003 C 53.462 349.445,53.227 350.165,53.216 350.603 C 53.178 352.188,52.989 353.409,52.716 353.832 C 52.562 354.070,52.392 355.567,52.337 357.159 C 52.283 358.751,52.094 360.142,51.919 360.250 C 51.744 360.359,51.600 361.211,51.600 362.144 C 51.600 363.077,51.427 364.013,51.216 364.224 C 50.853 364.587,50.361 368.184,50.279 371.074 C 50.258 371.803,50.117 372.400,49.966 372.400 C 49.652 372.400,49.317 375.713,48.812 383.800 C 48.620 386.880,48.346 390.030,48.204 390.800 C 48.063 391.570,47.869 393.550,47.773 395.200 C 47.621 397.836,47.320 400.483,46.955 402.400 C 46.892 402.730,46.804 405.211,46.760 407.913 C 46.716 410.616,46.527 412.922,46.340 413.037 C 46.153 413.153,46.000 420.515,46.000 429.397 L 46.000 445.547 47.841 447.336 C 49.338 448.791,50.003 449.152,51.391 449.263 C 56.076 449.639,127.559 448.757,137.200 448.205 C 139.070 448.097,144.470 447.839,149.200 447.630 C 153.930 447.422,158.520 447.064,159.400 446.835 C 160.280 446.606,164.004 446.415,167.676 446.410 C 171.348 446.404,174.454 446.235,174.579 446.034 C 174.705 445.830,179.675 445.647,185.866 445.619 C 191.949 445.592,197.091 445.467,197.293 445.343 C 197.783 445.040,199.151 444.922,206.000 444.595 C 209.190 444.442,211.987 444.165,212.216 443.979 C 212.445 443.794,216.945 443.560,222.216 443.460 C 227.487 443.360,233.060 443.167,234.600 443.032 C 236.140 442.897,238.390 442.712,239.600 442.621 C 240.810 442.530,242.430 442.336,243.200 442.191 C 243.970 442.046,246.397 441.841,248.593 441.735 C 250.790 441.629,252.770 441.401,252.993 441.227 C 253.217 441.053,257.538 440.872,262.594 440.826 C 267.992 440.776,271.988 440.576,272.270 440.342 C 272.577 440.087,275.908 440.027,281.476 440.175 C 286.274 440.303,302.080 440.494,316.600 440.601 C 331.120 440.707,343.990 440.874,345.200 440.973 C 352.024 441.531,358.522 442.217,358.700 442.398 C 358.860 442.560,359.533 442.696,360.447 442.750 C 361.087 442.788,361.242 442.995,361.084 443.600 C 360.969 444.040,361.032 444.400,361.225 444.400 C 361.417 444.400,361.496 444.625,361.399 444.900 C 361.201 445.460,362.930 447.600,363.581 447.600 C 363.811 447.600,364.000 447.791,364.000 448.024 C 364.000 448.257,364.160 448.349,364.355 448.228 C 364.550 448.107,364.932 448.277,365.204 448.604 C 365.791 449.313,374.800 449.496,374.800 448.800 C 374.800 448.580,375.145 448.400,375.566 448.400 C 376.634 448.400,379.600 445.539,379.600 444.510 C 379.600 444.046,379.803 443.599,380.051 443.516 C 380.593 443.336,381.056 436.000,380.593 434.927 C 380.420 434.527,380.230 433.958,380.169 433.662 C 380.109 433.366,379.781 432.826,379.441 432.462 C 377.198 430.061,374.713 428.000,374.062 428.000 C 373.830 428.000,373.496 427.747,373.320 427.438 C 372.962 426.810,368.400 424.204,368.400 424.628 C 368.400 424.777,368.175 424.712,367.900 424.485 C 366.978 423.722,362.800 424.367,362.800 425.271 C 362.800 425.768,361.772 426.800,361.277 426.800 C 360.773 426.800,360.000 428.791,360.111 429.800 C 360.176 430.386,359.986 430.577,359.400 430.514 C 356.704 430.225,356.125 430.125,355.720 429.874 C 355.097 429.489,345.226 429.773,336.695 430.421 C 328.691 431.029,317.079 430.531,313.404 429.423 C 311.892 428.967,309.153 428.812,302.104 428.785 C 296.987 428.765,292.800 428.594,292.800 428.403 C 292.800 427.789,287.102 428.342,281.400 429.511 C 277.815 430.246,265.808 430.395,252.052 429.875 C 247.154 429.689,244.131 429.725,243.834 429.972 C 243.575 430.187,243.011 430.374,242.582 430.388 C 236.145 430.599,234.038 430.733,233.200 430.983 C 232.650 431.148,229.230 431.697,225.600 432.203 C 221.970 432.710,218.190 433.325,217.200 433.572 C 213.834 434.408,202.362 434.547,194.998 433.841 C 188.653 433.232,184.747 433.293,183.800 434.016 C 183.580 434.184,179.416 434.347,174.547 434.379 C 167.308 434.426,165.102 434.578,162.440 435.214 C 154.564 437.095,143.073 437.699,133.714 436.723 C 130.341 436.371,128.951 436.363,128.425 436.692 C 127.944 436.992,123.538 437.157,114.955 437.198 C 103.103 437.254,100.631 437.343,98.000 437.808 C 90.986 439.047,75.196 438.839,67.000 437.400 C 66.560 437.323,64.346 437.246,62.080 437.230 L 57.960 437.200 58.135 423.700 C 58.295 411.320,58.735 403.353,59.399 400.800 C 59.543 400.250,59.736 398.405,59.830 396.700 C 60.088 391.992,60.431 387.387,60.821 383.400 C 61.014 381.420,61.278 378.270,61.408 376.400 C 61.537 374.530,61.748 372.730,61.877 372.400 C 62.159 371.678,62.219 371.372,62.775 367.854 C 63.014 366.343,63.296 364.968,63.402 364.797 C 63.508 364.626,63.619 363.387,63.649 362.043 C 63.680 360.699,63.846 359.600,64.018 359.600 C 64.191 359.600,64.411 358.475,64.509 357.100 C 64.606 355.725,65.001 353.520,65.385 352.200 C 67.036 346.535,67.349 335.541,65.912 333.718 C 65.702 333.452,65.642 333.055,65.778 332.835 C 65.914 332.615,65.751 331.778,65.415 330.975 C 65.080 330.172,64.910 329.346,65.037 329.140 C 65.165 328.934,65.100 328.548,64.894 328.282 C 64.688 328.017,64.286 326.630,64.000 325.200 C 63.714 323.770,63.329 322.403,63.144 322.163 C 62.958 321.923,62.924 321.609,63.068 321.466 C 63.211 321.322,63.002 320.844,62.602 320.402 C 62.203 319.961,62.016 319.600,62.187 319.600 C 62.358 319.600,62.299 319.361,62.057 319.069 C 61.814 318.776,61.550 318.191,61.470 317.769 C 61.119 315.916,60.684 314.800,60.314 314.800 C 60.094 314.800,60.005 314.565,60.115 314.277 C 60.338 313.695,59.628 310.846,58.799 309.000 C 58.502 308.340,58.209 307.350,58.147 306.800 C 57.910 304.696,56.697 300.400,56.339 300.400 C 56.133 300.400,56.004 300.175,56.052 299.900 C 56.099 299.625,55.803 298.320,55.394 297.000 C 54.984 295.680,54.628 294.420,54.603 294.200 C 54.494 293.249,53.858 291.359,53.488 290.890 C 53.267 290.610,53.190 290.277,53.317 290.149 C 53.445 290.022,53.364 289.441,53.138 288.859 C 52.667 287.647,52.517 286.903,52.248 284.448 C 52.143 283.485,51.864 282.504,51.628 282.268 C 51.393 282.033,51.200 281.437,51.200 280.944 C 51.200 280.451,51.050 279.954,50.866 279.841 C 50.683 279.727,50.504 278.906,50.469 278.016 C 50.434 277.126,50.234 276.084,50.025 275.699 C 49.815 275.315,49.513 274.280,49.353 273.400 C 49.036 271.658,49.040 271.675,48.692 270.800 C 48.560 270.470,48.353 269.030,48.232 267.600 C 47.965 264.438,47.338 259.691,47.043 258.600 C 46.924 258.160,46.745 257.170,46.644 256.400 C 46.543 255.630,46.276 254.403,46.050 253.673 C 45.825 252.943,45.606 250.918,45.564 249.173 C 45.522 247.428,45.371 246.000,45.229 246.000 C 45.087 246.000,44.941 245.615,44.906 245.145 C 44.870 244.675,44.552 242.830,44.199 241.045 C 43.845 239.260,43.511 237.490,43.456 237.112 C 43.401 236.733,43.231 236.298,43.078 236.145 C 42.925 235.992,42.800 235.504,42.800 235.062 C 42.800 234.262,42.452 233.008,41.296 229.646 C 40.672 227.833,41.099 227.012,42.673 226.995 C 43.433 226.987,45.161 225.163,44.944 224.598 C 44.835 224.314,44.938 223.962,45.173 223.817 C 45.730 223.473,45.730 220.400,45.173 220.400 C 44.928 220.400,44.854 220.059,45.000 219.600 C 45.140 219.160,45.086 218.800,44.881 218.800 C 44.676 218.800,43.992 218.035,43.361 217.100 C 41.607 214.503,40.743 213.640,39.000 212.746 C 37.494 211.973,34.310 211.424,33.872 211.861 " stroke="none" fill="#bcb924" fill-rule="evenodd"></path><path id="path2" d="M232.600 91.600 C 232.464 91.820,231.193 92.000,229.776 92.000 C 228.325 92.000,227.200 92.175,227.200 92.400 C 227.200 92.620,226.384 92.800,225.387 92.800 C 224.145 92.800,223.502 92.989,223.345 93.400 C 223.203 93.770,222.595 94.000,221.757 94.000 C 221.011 94.000,220.400 94.180,220.400 94.400 C 220.400 94.620,219.770 94.800,219.000 94.800 C 218.230 94.800,217.600 94.980,217.600 95.200 C 217.600 95.420,217.150 95.600,216.600 95.600 C 215.978 95.600,215.600 95.827,215.600 96.200 C 215.600 96.573,215.222 96.800,214.600 96.800 C 214.050 96.800,213.600 96.980,213.600 97.200 C 213.600 97.420,213.240 97.600,212.800 97.600 C 212.360 97.600,212.000 97.780,212.000 98.000 C 212.000 98.220,211.550 98.400,211.000 98.400 C 210.378 98.400,210.000 98.627,210.000 99.000 C 210.000 99.346,209.639 99.600,209.147 99.600 C 208.678 99.600,208.003 99.928,207.647 100.328 C 207.291 100.729,206.415 101.398,205.700 101.815 C 204.985 102.231,204.400 102.714,204.400 102.886 C 204.400 103.059,204.130 103.200,203.800 103.200 C 203.470 103.200,203.200 103.388,203.200 103.618 C 203.200 103.848,202.758 104.478,202.218 105.018 C 201.678 105.558,201.048 106.000,200.818 106.000 C 200.588 106.000,200.400 106.230,200.400 106.512 C 200.400 106.793,200.040 107.283,199.600 107.600 C 199.160 107.917,198.800 108.399,198.800 108.670 C 198.800 108.942,198.350 109.614,197.800 110.164 C 197.250 110.714,196.800 111.532,196.800 111.982 C 196.800 112.432,196.560 112.800,196.268 112.800 C 195.975 112.800,195.504 113.295,195.221 113.900 C 194.938 114.505,194.548 115.313,194.353 115.695 C 194.159 116.077,194.000 116.842,194.000 117.395 C 194.000 118.022,193.774 118.400,193.400 118.400 C 192.981 118.400,192.800 118.822,192.800 119.800 C 192.800 120.570,192.620 121.200,192.400 121.200 C 192.180 121.200,192.000 122.179,192.000 123.376 C 192.000 124.573,191.820 125.664,191.600 125.800 C 191.353 125.953,191.200 129.404,191.200 134.824 C 191.200 140.408,191.345 143.600,191.600 143.600 C 191.820 143.600,192.000 144.579,192.000 145.776 C 192.000 146.973,192.180 148.064,192.400 148.200 C 192.620 148.336,192.800 148.982,192.800 149.636 C 192.800 150.324,193.053 150.922,193.400 151.055 C 193.730 151.182,194.000 151.716,194.000 152.243 C 194.000 152.769,194.180 153.200,194.400 153.200 C 194.620 153.200,194.800 153.635,194.800 154.168 C 194.800 155.190,195.991 157.593,196.500 157.597 C 196.665 157.599,196.800 157.870,196.800 158.200 C 196.800 158.530,196.980 158.800,197.200 158.800 C 197.420 158.800,197.600 159.220,197.600 159.732 C 197.600 160.318,197.972 160.864,198.600 161.200 C 199.150 161.494,199.600 162.078,199.600 162.496 C 199.600 163.325,200.487 164.400,201.171 164.400 C 201.407 164.400,201.600 164.670,201.600 165.000 C 201.600 165.330,201.735 165.601,201.900 165.603 C 202.065 165.604,202.648 166.263,203.195 167.066 C 204.400 168.835,206.654 171.200,207.135 171.200 C 207.327 171.200,208.317 172.010,209.336 173.000 C 210.355 173.990,211.371 174.800,211.594 174.800 C 211.817 174.800,212.000 174.988,212.000 175.218 C 212.000 175.738,213.828 177.600,214.339 177.600 C 214.545 177.600,214.818 177.870,214.945 178.200 C 215.071 178.530,215.451 178.800,215.787 178.800 C 216.124 178.800,216.400 178.980,216.400 179.200 C 216.400 179.420,216.593 179.600,216.829 179.600 C 217.295 179.600,218.400 180.585,218.400 181.000 C 218.400 181.385,219.490 182.400,219.904 182.400 C 220.102 182.400,220.506 182.850,220.800 183.400 C 221.094 183.950,221.575 184.400,221.868 184.400 C 222.160 184.400,222.400 184.580,222.400 184.800 C 222.400 185.020,222.670 185.200,223.000 185.200 C 223.330 185.200,223.600 185.386,223.600 185.613 C 223.600 185.839,223.915 186.146,224.299 186.293 C 225.192 186.636,226.800 188.236,226.800 188.782 C 226.800 189.012,227.070 189.200,227.400 189.200 C 227.733 189.200,228.000 189.556,228.000 190.000 C 228.000 190.440,228.180 190.800,228.400 190.800 C 228.620 190.800,228.800 191.070,228.800 191.400 C 228.800 191.730,228.980 192.000,229.200 192.000 C 229.420 192.000,229.600 192.366,229.600 192.813 C 229.600 193.259,229.870 193.729,230.200 193.855 C 230.542 193.987,230.800 194.583,230.800 195.243 C 230.800 195.879,230.980 196.400,231.200 196.400 C 231.440 196.400,231.600 198.000,231.600 200.400 C 231.600 202.800,231.440 204.400,231.200 204.400 C 230.980 204.400,230.800 204.677,230.800 205.016 C 230.800 205.972,227.603 208.800,226.522 208.800 C 226.001 208.800,225.471 209.070,225.345 209.400 C 225.003 210.290,213.797 210.290,213.455 209.400 C 213.304 209.006,212.680 208.800,211.636 208.800 C 210.762 208.800,209.936 208.620,209.800 208.400 C 209.288 207.572,204.400 207.912,204.400 208.776 C 204.400 209.203,204.580 209.664,204.800 209.800 C 205.020 209.936,205.200 210.847,205.200 211.824 C 205.200 212.801,205.380 213.600,205.600 213.600 C 205.820 213.600,206.000 214.217,206.000 214.971 C 206.000 215.726,206.270 216.613,206.600 216.943 C 206.934 217.277,207.200 218.255,207.200 219.148 C 207.200 220.031,207.380 220.864,207.600 221.000 C 207.820 221.136,208.000 222.047,208.000 223.024 C 208.000 224.001,208.180 224.800,208.400 224.800 C 208.620 224.800,208.800 225.687,208.800 226.771 C 208.800 227.990,209.029 228.972,209.400 229.343 C 209.774 229.717,210.000 230.699,210.000 231.948 C 210.000 233.051,210.180 234.064,210.400 234.200 C 210.620 234.336,210.801 235.022,210.803 235.724 C 210.807 237.356,212.074 238.000,215.280 238.000 C 217.076 238.000,217.600 238.136,217.600 238.600 C 217.600 239.121,219.330 239.200,230.771 239.200 C 241.946 239.200,244.034 239.109,244.543 238.600 C 244.880 238.263,245.857 238.000,246.771 238.000 C 247.667 238.000,248.400 237.820,248.400 237.600 C 248.400 237.380,249.030 237.200,249.800 237.200 C 250.570 237.200,251.200 237.020,251.200 236.800 C 251.200 236.580,251.650 236.400,252.200 236.400 C 252.822 236.400,253.200 236.173,253.200 235.800 C 253.200 235.427,253.578 235.200,254.200 235.200 C 254.750 235.200,255.200 235.020,255.200 234.800 C 255.200 234.580,255.573 234.400,256.029 234.400 C 256.484 234.400,257.108 234.175,257.415 233.900 C 258.687 232.759,259.183 232.400,259.488 232.400 C 259.665 232.400,260.148 231.950,260.561 231.400 C 260.974 230.850,261.578 230.400,261.902 230.400 C 262.630 230.400,268.400 224.485,268.400 223.739 C 268.400 223.443,268.580 223.200,268.800 223.200 C 269.020 223.200,269.200 222.949,269.200 222.643 C 269.200 222.336,269.470 221.982,269.800 221.855 C 270.130 221.729,270.400 221.259,270.400 220.813 C 270.400 220.366,270.580 220.000,270.800 220.000 C 271.020 220.000,271.200 219.640,271.200 219.200 C 271.200 218.760,271.380 218.400,271.600 218.400 C 271.820 218.400,272.000 217.789,272.000 217.043 C 272.000 216.205,272.230 215.597,272.600 215.455 C 272.974 215.312,273.200 214.702,273.200 213.836 C 273.200 213.072,273.380 212.336,273.600 212.200 C 273.844 212.049,274.000 208.996,274.000 204.376 C 274.000 199.592,273.853 196.800,273.600 196.800 C 273.380 196.800,273.200 195.984,273.200 194.987 C 273.200 193.745,273.011 193.102,272.600 192.945 C 272.258 192.813,272.000 192.217,272.000 191.557 C 272.000 190.921,271.820 190.400,271.600 190.400 C 271.380 190.400,271.200 189.961,271.200 189.424 C 271.200 188.887,271.020 188.336,270.800 188.200 C 270.580 188.064,270.400 187.603,270.400 187.176 C 270.400 186.749,270.130 186.400,269.800 186.400 C 269.427 186.400,269.200 186.022,269.200 185.400 C 269.200 184.850,269.020 184.400,268.800 184.400 C 268.580 184.400,268.400 184.102,268.400 183.738 C 268.400 183.374,267.950 182.486,267.400 181.764 C 266.850 181.043,266.400 180.261,266.400 180.027 C 266.400 179.792,266.220 179.600,266.000 179.600 C 265.780 179.600,265.600 179.306,265.600 178.946 C 265.600 178.586,265.150 177.875,264.600 177.365 C 264.050 176.855,263.600 176.070,263.600 175.619 C 263.600 175.169,263.420 174.800,263.200 174.800 C 262.980 174.800,262.800 174.440,262.800 174.000 C 262.800 173.556,262.533 173.200,262.200 173.200 C 261.827 173.200,261.600 172.822,261.600 172.200 C 261.600 171.650,261.420 171.200,261.200 171.200 C 260.980 171.200,260.800 170.750,260.800 170.200 C 260.800 169.650,260.620 169.200,260.400 169.200 C 260.180 169.200,260.000 168.840,260.000 168.400 C 260.000 167.956,259.733 167.600,259.400 167.600 C 258.909 167.600,258.800 166.916,258.800 163.843 C 258.800 160.872,258.926 160.037,259.400 159.855 C 259.730 159.729,260.000 159.299,260.000 158.901 C 260.000 158.503,260.360 157.917,260.800 157.600 C 261.240 157.283,261.600 156.793,261.600 156.512 C 261.600 156.230,261.793 156.000,262.029 156.000 C 262.264 156.000,262.708 155.775,263.015 155.500 C 265.349 153.407,266.085 153.200,271.195 153.200 C 274.132 153.200,276.000 153.356,276.000 153.600 C 276.000 153.822,277.067 154.000,278.400 154.000 L 280.800 154.000 280.800 144.676 C 280.800 137.098,280.690 135.208,280.213 134.576 C 279.735 133.945,279.623 132.005,279.613 124.180 C 279.605 118.442,279.442 114.402,279.208 114.168 C 278.980 113.940,278.770 109.838,278.708 104.388 L 278.600 95.000 277.700 94.872 C 277.205 94.802,276.800 94.577,276.800 94.372 C 276.800 94.167,275.977 94.000,274.971 94.000 C 273.879 94.000,272.901 93.758,272.543 93.400 C 272.159 93.016,271.171 92.800,269.795 92.800 C 268.614 92.800,267.536 92.620,267.400 92.400 C 267.264 92.180,265.914 92.000,264.400 92.000 C 262.886 92.000,261.536 91.820,261.400 91.600 C 261.243 91.346,256.004 91.200,247.000 91.200 C 237.996 91.200,232.757 91.346,232.600 91.600 M77.000 92.400 C 76.857 92.632,74.677 92.800,71.819 92.800 C 67.803 92.800,66.843 92.912,66.655 93.400 C 66.474 93.871,65.659 94.000,62.855 94.000 C 59.969 94.000,59.239 94.121,59.043 94.633 C 58.490 96.074,58.782 108.623,59.387 109.424 C 59.851 110.037,59.977 111.689,59.987 117.276 C 59.995 121.548,60.159 124.451,60.400 124.600 C 60.643 124.750,60.800 127.730,60.800 132.200 C 60.800 136.244,60.951 139.646,61.137 139.761 C 61.322 139.875,61.585 143.709,61.721 148.279 C 61.875 153.455,62.125 156.642,62.384 156.728 C 62.658 156.819,62.800 160.602,62.800 167.833 C 62.800 174.878,62.943 178.800,63.200 178.800 C 63.458 178.800,63.600 183.257,63.600 191.371 C 63.600 202.013,63.692 204.035,64.200 204.543 C 64.708 205.051,64.800 207.077,64.800 217.748 C 64.800 225.720,64.947 230.444,65.200 230.600 C 65.420 230.736,65.600 232.457,65.600 234.424 L 65.600 238.000 68.357 238.000 C 70.439 238.000,71.171 238.147,71.345 238.600 C 71.528 239.078,72.390 239.200,75.587 239.200 C 77.996 239.200,79.600 239.360,79.600 239.600 C 79.600 239.861,86.725 240.000,100.176 240.000 C 113.463 240.000,120.840 239.858,121.000 239.600 C 121.136 239.380,122.484 239.200,123.995 239.200 C 125.809 239.200,126.932 239.011,127.299 238.643 C 127.605 238.337,128.743 237.990,129.828 237.872 C 132.540 237.577,134.451 237.209,135.400 236.802 C 135.840 236.612,136.875 236.346,137.700 236.211 C 138.525 236.075,139.200 235.792,139.200 235.582 C 139.200 235.372,139.729 235.200,140.376 235.200 C 141.023 235.200,141.664 235.020,141.800 234.800 C 141.936 234.580,142.487 234.400,143.024 234.400 C 143.561 234.400,144.000 234.220,144.000 234.000 C 144.000 233.780,144.326 233.600,144.724 233.600 C 145.121 233.600,145.796 233.336,146.224 233.013 C 146.651 232.690,147.315 232.420,147.700 232.413 C 148.085 232.406,148.400 232.220,148.400 232.000 C 148.400 231.780,148.850 231.600,149.400 231.600 C 150.022 231.600,150.400 231.373,150.400 231.000 C 150.400 230.627,150.778 230.400,151.400 230.400 C 151.950 230.400,152.400 230.220,152.400 230.000 C 152.400 229.780,152.760 229.600,153.200 229.600 C 153.640 229.600,154.000 229.420,154.000 229.200 C 154.000 228.980,154.270 228.800,154.600 228.800 C 154.930 228.800,155.200 228.530,155.200 228.200 C 155.200 227.842,155.568 227.600,156.112 227.600 C 156.613 227.600,157.283 227.240,157.600 226.800 C 157.917 226.360,158.401 226.000,158.675 226.000 C 158.949 226.000,159.768 225.405,160.496 224.678 C 161.223 223.951,162.129 223.236,162.509 223.090 C 162.889 222.944,163.200 222.639,163.200 222.413 C 163.200 222.186,163.398 222.000,163.640 222.000 C 163.882 222.000,164.902 221.190,165.906 220.200 C 166.910 219.210,167.882 218.400,168.066 218.400 C 168.250 218.400,168.400 218.223,168.400 218.007 C 168.400 217.791,169.030 216.966,169.800 216.173 C 170.570 215.380,171.200 214.555,171.200 214.339 C 171.200 214.123,171.830 213.352,172.600 212.626 C 173.370 211.900,174.000 211.012,174.000 210.653 C 174.000 210.294,174.180 210.000,174.400 210.000 C 174.620 210.000,174.800 209.730,174.800 209.400 C 174.800 209.070,175.070 208.800,175.400 208.800 C 175.733 208.800,176.000 208.444,176.000 208.000 C 176.000 207.560,176.180 207.200,176.400 207.200 C 176.620 207.200,176.800 206.849,176.800 206.421 C 176.800 205.992,177.250 205.156,177.800 204.562 C 178.350 203.969,178.800 203.160,178.800 202.765 C 178.800 202.370,178.980 201.936,179.200 201.800 C 179.420 201.664,179.600 201.133,179.600 200.619 C 179.600 200.106,179.870 199.582,180.200 199.455 C 180.530 199.329,180.800 198.859,180.800 198.413 C 180.800 197.966,180.980 197.600,181.200 197.600 C 181.420 197.600,181.600 196.970,181.600 196.200 C 181.600 195.430,181.780 194.800,182.000 194.800 C 182.220 194.800,182.400 194.189,182.400 193.443 C 182.400 192.605,182.630 191.997,183.000 191.855 C 183.411 191.698,183.600 191.055,183.600 189.813 C 183.600 188.816,183.780 188.000,184.000 188.000 C 184.220 188.000,184.400 187.021,184.400 185.824 C 184.400 184.627,184.580 183.536,184.800 183.400 C 185.020 183.264,185.200 181.711,185.200 179.948 C 185.200 177.632,185.367 176.576,185.800 176.143 C 186.297 175.646,186.400 174.040,186.400 166.820 C 186.400 159.555,186.300 158.015,185.800 157.600 C 185.350 157.226,185.200 156.222,185.200 153.575 C 185.200 151.635,185.020 149.936,184.800 149.800 C 184.580 149.664,184.400 148.584,184.400 147.400 C 184.400 146.216,184.220 145.136,184.000 145.000 C 183.780 144.864,183.600 144.146,183.600 143.405 C 183.600 142.664,183.330 141.787,183.000 141.457 C 182.670 141.127,182.400 140.304,182.400 139.629 C 182.400 138.953,182.220 138.400,182.000 138.400 C 181.780 138.400,181.600 137.770,181.600 137.000 C 181.600 136.230,181.420 135.600,181.200 135.600 C 180.980 135.600,180.800 135.150,180.800 134.600 C 180.800 133.978,180.573 133.600,180.200 133.600 C 179.865 133.600,179.600 133.244,179.600 132.795 C 179.600 132.352,179.435 131.677,179.234 131.295 C 179.032 130.913,178.574 129.925,178.215 129.100 C 177.856 128.275,177.391 127.600,177.181 127.600 C 176.972 127.600,176.800 127.240,176.800 126.800 C 176.800 126.360,176.620 126.000,176.400 126.000 C 176.180 126.000,176.000 125.550,176.000 125.000 C 176.000 124.450,175.807 124.000,175.571 124.000 C 174.924 124.000,174.000 122.942,174.000 122.200 C 174.000 121.510,173.091 120.400,172.526 120.400 C 172.344 120.400,171.940 119.815,171.628 119.100 C 170.984 117.625,162.310 108.800,161.503 108.800 C 161.214 108.800,160.717 108.440,160.400 108.000 C 160.083 107.560,159.612 107.200,159.354 107.200 C 159.097 107.200,158.782 106.930,158.655 106.600 C 158.529 106.270,158.149 106.000,157.813 106.000 C 157.476 106.000,157.200 105.820,157.200 105.600 C 157.200 105.380,156.930 105.200,156.600 105.200 C 156.270 105.200,156.000 105.020,156.000 104.800 C 156.000 104.580,155.659 104.400,155.243 104.400 C 154.826 104.400,154.382 104.130,154.255 103.800 C 154.129 103.470,153.674 103.200,153.246 103.200 C 152.817 103.200,152.407 103.063,152.333 102.896 C 152.143 102.463,148.036 100.400,147.363 100.400 C 147.053 100.400,146.800 100.220,146.800 100.000 C 146.800 99.780,146.365 99.600,145.833 99.600 C 145.302 99.600,144.800 99.401,144.719 99.158 C 144.558 98.674,141.817 97.616,140.700 97.606 C 140.315 97.603,140.000 97.420,140.000 97.200 C 140.000 96.980,139.447 96.800,138.771 96.800 C 138.096 96.800,137.273 96.530,136.943 96.200 C 136.613 95.870,135.726 95.600,134.971 95.600 C 134.217 95.600,133.600 95.420,133.600 95.200 C 133.600 94.980,132.700 94.800,131.600 94.800 C 130.500 94.800,129.600 94.620,129.600 94.400 C 129.600 94.178,128.533 94.000,127.200 94.000 C 125.333 94.000,124.800 93.867,124.800 93.400 C 124.800 92.917,124.180 92.800,121.624 92.800 C 119.877 92.800,118.336 92.620,118.200 92.400 C 118.040 92.142,110.737 92.000,97.600 92.000 C 84.463 92.000,77.160 92.142,77.000 92.400 M123.200 153.600 C 123.200 153.833,124.519 154.000,126.357 154.000 C 128.795 154.000,129.567 154.137,129.745 154.600 C 129.879 154.951,130.479 155.200,131.187 155.200 C 131.854 155.200,132.400 155.380,132.400 155.600 C 132.400 155.820,132.850 156.000,133.400 156.000 C 133.950 156.000,134.400 156.168,134.400 156.373 C 134.400 156.578,134.791 156.870,135.269 157.022 C 135.747 157.174,136.501 157.636,136.945 158.049 C 137.388 158.462,138.077 158.800,138.475 158.800 C 138.874 158.800,139.200 158.993,139.200 159.229 C 139.200 159.695,140.185 160.800,140.600 160.800 C 141.103 160.800,142.000 161.953,142.000 162.600 C 142.000 163.342,142.924 164.400,143.571 164.400 C 143.807 164.400,144.000 164.850,144.000 165.400 C 144.000 165.950,144.180 166.400,144.400 166.400 C 144.620 166.400,144.800 167.030,144.800 167.800 C 144.800 168.570,144.958 169.200,145.150 169.200 C 145.343 169.200,145.586 170.226,145.690 171.480 C 145.794 172.734,146.086 173.829,146.340 173.913 C 147.078 174.159,146.965 183.186,146.216 183.756 C 145.833 184.048,145.605 185.058,145.551 186.700 C 145.506 188.075,145.318 189.200,145.134 189.200 C 144.950 189.200,144.800 189.830,144.800 190.600 C 144.800 191.370,144.620 192.000,144.400 192.000 C 144.180 192.000,144.000 192.450,144.000 193.000 C 144.000 193.550,143.833 194.000,143.629 194.000 C 143.244 194.000,142.000 196.227,142.000 196.916 C 142.000 197.132,141.550 197.725,141.000 198.235 C 140.450 198.745,140.000 199.401,140.000 199.693 C 140.000 199.985,139.640 200.483,139.200 200.800 C 138.760 201.117,138.400 201.607,138.400 201.888 C 138.400 202.170,138.196 202.400,137.947 202.400 C 137.698 202.400,137.203 202.728,136.847 203.128 C 136.491 203.529,135.615 204.198,134.900 204.615 C 134.185 205.031,133.600 205.514,133.600 205.686 C 133.600 205.859,133.234 206.000,132.787 206.000 C 132.341 206.000,131.871 206.270,131.745 206.600 C 131.618 206.930,131.184 207.200,130.781 207.200 C 130.377 207.200,129.936 207.380,129.800 207.600 C 129.664 207.820,129.203 208.000,128.776 208.000 C 128.349 208.000,128.000 208.180,128.000 208.400 C 128.000 208.620,127.383 208.800,126.629 208.800 C 125.874 208.800,124.987 209.070,124.657 209.400 C 124.299 209.758,123.321 210.000,122.229 210.000 L 120.400 210.000 120.400 189.024 C 120.400 175.471,120.542 167.960,120.800 167.800 C 121.043 167.650,121.200 164.729,121.200 160.376 L 121.200 153.200 122.200 153.200 C 122.750 153.200,123.200 153.380,123.200 153.600 M24.400 229.853 C 24.400 230.141,26.013 231.600,26.331 231.600 C 26.446 231.600,26.117 231.150,25.600 230.600 C 24.627 229.564,24.400 229.423,24.400 229.853 M46.000 309.753 C 46.000 310.083,46.180 310.464,46.400 310.600 C 46.620 310.736,46.800 310.577,46.800 310.247 C 46.800 309.917,46.620 309.536,46.400 309.400 C 46.180 309.264,46.000 309.423,46.000 309.753 M45.780 428.600 C 45.780 436.080,45.834 439.083,45.899 435.274 C 45.965 431.465,45.965 425.345,45.899 421.674 C 45.833 418.003,45.779 421.120,45.780 428.600 M361.802 425.998 C 361.403 426.439,361.207 426.800,361.367 426.800 C 361.788 426.800,362.928 425.595,362.712 425.379 C 362.611 425.278,362.202 425.556,361.802 425.998 M292.800 428.400 C 292.800 428.620,293.070 428.800,293.400 428.800 C 293.730 428.800,294.000 428.620,294.000 428.400 C 294.000 428.180,293.730 428.000,293.400 428.000 C 293.070 428.000,292.800 428.180,292.800 428.400 M351.907 441.890 C 352.626 441.979,353.706 441.977,354.307 441.886 C 354.908 441.795,354.320 441.722,353.000 441.724 C 351.680 441.726,351.188 441.801,351.907 441.890 M231.800 443.200 C 231.029 443.531,231.031 443.545,231.876 443.572 C 232.358 443.587,232.864 443.420,233.000 443.200 C 233.292 442.727,232.901 442.727,231.800 443.200 M117.800 448.800 C 117.029 449.131,117.031 449.145,117.876 449.172 C 118.358 449.187,118.864 449.020,119.000 448.800 C 119.292 448.327,118.901 448.327,117.800 448.800 " stroke="none" fill="#5c5cd4" fill-rule="evenodd"></path></g></svg>