<?xml version="1.0" encoding="UTF-8"?>
<!DOCTYPE svg PUBLIC "-//W3C//DTD SVG 1.1//EN" "http://www.w3.org/Graphics/SVG/1.1/DTD/svg11.dtd">
<svg xmlns="http://www.w3.org/2000/svg" version="1.1" width="192px" height="192px" style="shape-rendering:geometricPrecision; text-rendering:geometricPrecision; image-rendering:optimizeQuality; fill-rule:evenodd; clip-rule:evenodd" xmlns:xlink="http://www.w3.org/1999/xlink">
<g><path style="opacity:1" fill="#0a0e0f" d="M 13.5,-0.5 C 68.1667,-0.5 122.833,-0.5 177.5,-0.5C 182.141,3.80525 186.807,8.13858 191.5,12.5C 191.5,67.8333 191.5,123.167 191.5,178.5C 186.833,182.5 182.5,186.833 178.5,191.5C 123.167,191.5 67.8333,191.5 12.5,191.5C 8.13858,186.807 3.80525,182.141 -0.5,177.5C -0.5,122.833 -0.5,68.1667 -0.5,13.5C 3.83333,8.5 8.5,3.83333 13.5,-0.5 Z"/></g>
<g><path style="opacity:1" fill="#090ecf" d="M 156.5,45.5 C 166.51,50.7365 167.844,57.5698 160.5,66C 154.188,69.7857 147.355,71.2857 140,70.5C 131.885,70.7769 124.052,69.4435 116.5,66.5C 113.261,67.7043 110.094,69.0376 107,70.5C 106.333,64.1667 106.333,57.8333 107,51.5C 116.245,59.5291 127.078,63.5291 139.5,63.5C 141.5,63.3333 143.5,63.1667 145.5,63C 148.646,62.8905 149.646,61.5572 148.5,59C 139.146,58.18 129.813,57.18 120.5,56C 114.75,55.2089 109.917,52.7089 106,48.5C 103.466,38.1128 107.633,31.9462 118.5,30C 128.543,28.8258 138.376,29.6591 148,32.5C 151.262,31.8017 154.428,30.8017 157.5,29.5C 157.833,32.1667 158.167,34.8333 158.5,37.5C 158.478,40.5902 157.812,43.2568 156.5,45.5 Z"/></g>
<g><path style="opacity:1" fill="#090ed1" d="M 21.5,32.5 C 31.1609,31.8335 40.9942,31.5002 51,31.5C 62.2215,31.3787 73.3881,31.8787 84.5,33C 91.9595,35.4617 97.1261,40.295 100,47.5C 100.899,52.8017 99.3994,57.3017 95.5,61C 90.4097,64.7112 84.743,67.0445 78.5,68C 59.5,68.6667 40.5,68.6667 21.5,68C 25.248,65.3756 29.0813,62.8756 33,60.5C 33.6667,53.8333 33.6667,47.1667 33,40.5C 29.2249,37.7003 25.3916,35.0336 21.5,32.5 Z"/></g>
<g><path style="opacity:1" fill="#0a0e13" d="M 156.5,45.5 C 145.995,43.0738 135.328,41.5738 124.5,41C 122.059,40.964 120.059,40.1307 118.5,38.5C 118.709,37.914 119.043,37.414 119.5,37C 133.079,34.6456 145.412,37.4789 156.5,45.5 Z"/></g>
<g><path style="opacity:1" fill="#090e10" d="M 53.5,38.5 C 60.8558,37.7676 67.8558,38.9343 74.5,42C 77.784,46.8897 78.284,52.0564 76,57.5C 75.0975,58.7014 73.9308,59.5348 72.5,60C 66.2041,61.0118 59.8708,61.5118 53.5,61.5C 53.5,53.8333 53.5,46.1667 53.5,38.5 Z"/></g>
<g><path style="opacity:1" fill="#bdbb33" d="M 41.5,165.5 C 45.1337,166.758 48.8004,166.758 52.5,165.5C 54.8333,165.5 57.1667,165.5 59.5,165.5C 63.1667,166.833 66.8333,166.833 70.5,165.5C 74.8333,165.5 79.1667,165.5 83.5,165.5C 86.6085,165.736 89.6085,165.403 92.5,164.5C 97.5,164.5 102.5,164.5 107.5,164.5C 110.167,164.5 112.833,164.5 115.5,164.5C 121.5,164.5 127.5,164.5 133.5,164.5C 137.487,164.99 141.154,164.324 144.5,162.5C 147.87,162.279 150.87,161.279 153.5,159.5C 162.436,161.182 163.436,164.682 156.5,170C 151.234,169.787 145.9,169.954 140.5,170.5C 123.163,170.333 105.83,170.5 88.5,171C 84.6437,171.177 80.977,171.677 77.5,172.5C 63.6728,173.661 49.6728,173.827 35.5,173C 33.324,172.837 31.4907,172.004 30,170.5C 28.0308,162.997 27.0308,155.33 27,147.5C 24.1529,143.011 22.8195,138.011 23,132.5C 22.2893,120.654 22.456,108.821 23.5,97C 23.6076,93.7622 22.941,90.7622 21.5,88C 22.8662,84.4582 25.1995,81.6249 28.5,79.5C 31.6516,81.3163 33.6516,83.9829 34.5,87.5C 33.8333,88.8333 32.8333,89.8333 31.5,90.5C 28.1123,109.809 28.9456,128.809 34,147.5C 34.4034,152.867 35.07,158.201 36,163.5C 37.4007,165.192 39.2341,165.859 41.5,165.5 Z"/></g>
<g><path style="opacity:1" fill="#bc0a1e" d="M 144.5,162.5 C 141.154,164.324 137.487,164.99 133.5,164.5C 131.914,161.297 131.247,157.797 131.5,154C 132.068,132.154 132.902,110.321 134,88.5C 138.454,85.3304 141.787,86.3304 144,91.5C 144.158,115.2 144.325,138.867 144.5,162.5 Z"/></g>
<g><path style="opacity:1" fill="#bd0a1e" d="M 115.5,164.5 C 112.833,164.5 110.167,164.5 107.5,164.5C 104.426,144.01 104.259,123.343 107,102.5C 111,98.5 115,98.5 119,102.5C 119.167,104.667 119.333,106.833 119.5,109C 118.772,127.728 117.439,146.228 115.5,164.5 Z"/></g>
<g><path style="opacity:1" fill="#b90b1d" d="M 92.5,164.5 C 89.6085,165.403 86.6085,165.736 83.5,165.5C 82.2292,161.252 81.5626,156.752 81.5,152C 82.1125,140.153 82.9458,128.32 84,116.5C 87,112.5 90,112.5 93,116.5C 93.213,132.603 93.0463,148.603 92.5,164.5 Z"/></g>
<g><path style="opacity:1" fill="#ba0b1d" d="M 70.5,165.5 C 66.8333,166.833 63.1667,166.833 59.5,165.5C 59.268,153.8 59.768,142.134 61,130.5C 64.048,126.99 67.3813,126.657 71,129.5C 71.7923,141.546 71.6256,153.546 70.5,165.5 Z"/></g>
<g><path style="opacity:1" fill="#b60b1d" d="M 52.5,165.5 C 48.8004,166.758 45.1337,166.758 41.5,165.5C 40.3722,158.58 40.2055,151.58 41,144.5C 43.8235,139.605 47.1568,139.271 51,143.5C 51.3637,150.852 51.8637,158.185 52.5,165.5 Z"/></g>
<g><path style="opacity:1" fill="#68671d" d="M 140.5,170.5 C 119.663,171.322 98.663,171.989 77.5,172.5C 80.977,171.677 84.6437,171.177 88.5,171C 105.83,170.5 123.163,170.333 140.5,170.5 Z"/></g>
</svg>
